<svg width="18" height="18" viewBox="0 0 18 18" fill="none" xmlns="http://www.w3.org/2000/svg">
<path d="M1.5 9C1.5 9.3825 1.5285 9.76575 1.5855 10.1392C1.63125 10.437 1.908 10.6448 2.20725 10.5953C2.505 10.5495 2.709 10.2712 2.664 9.97425C2.61525 9.6555 2.5905 9.32775 2.5905 9C2.5905 5.466 5.466 2.59125 9 2.59125C12.534 2.59125 15.4095 5.466 15.4095 9C15.4095 12.5347 12.534 15.4095 9 15.4095C6.99525 15.4095 5.14275 14.4983 3.9195 12.9075C3.73425 12.6697 3.39225 12.624 3.15375 12.8085C2.916 12.9915 2.871 13.335 3.05475 13.5735C4.48725 15.4328 6.654 16.5 9 16.5C13.1355 16.5 16.5 13.1355 16.5 9C16.5 4.8645 13.1355 1.5 9 1.5C4.8645 1.5 1.5 4.8645 1.5 9Z" fill="currentColor"/>
</svg>
