<svg width="24" height="24" viewBox="0 0 24 24" fill="none" xmlns="http://www.w3.org/2000/svg">
<path fill-rule="evenodd" clip-rule="evenodd" d="M7.665 1.99976H16.334C19.723 1.99976 22 4.37776 22 7.91576V16.0838C22 19.6218 19.722 21.9998 16.333 21.9998H10.953C10.539 21.9998 10.203 21.6638 10.203 21.2498C10.203 20.8358 10.539 20.4998 10.953 20.4998H16.333C18.864 20.4998 20.5 18.7668 20.5 16.0838V7.91576C20.5 5.23276 18.864 3.49976 16.334 3.49976H7.665C5.135 3.49976 3.5 5.23276 3.5 7.91576V16.0838C3.5 18.7668 5.135 20.4998 7.665 20.4998C8.079 20.4998 8.415 20.8358 8.415 21.2498C8.415 21.6638 8.079 21.9998 7.665 21.9998C4.276 21.9998 2 19.6218 2 16.0838V7.91576C2 4.37776 4.276 1.99976 7.665 1.99976ZM6.467 10.9324C6.637 10.5544 7.079 10.3854 7.459 10.5564C7.837 10.7254 8.005 11.1694 7.835 11.5474C7.771 11.6904 7.739 11.8424 7.739 11.9994C7.739 12.6074 8.233 13.1014 8.84 13.1014C9.448 13.1014 9.942 12.6074 9.942 11.9994C9.942 11.3924 9.448 10.8984 8.84 10.8984C8.426 10.8984 8.09 10.5624 8.09 10.1484C8.09 9.73436 8.426 9.39836 8.84 9.39836C10.013 9.39836 10.994 10.1824 11.318 11.2494H17.01C17.424 11.2494 17.76 11.5854 17.76 11.9994V13.8514C17.76 14.2654 17.424 14.6014 17.01 14.6014C16.596 14.6014 16.26 14.2654 16.26 13.8514V12.7494H14.931V13.8514C14.931 14.2654 14.595 14.6014 14.181 14.6014C13.767 14.6014 13.431 14.2654 13.431 13.8514V12.7494H11.318C10.994 13.8174 10.013 14.6014 8.84 14.6014C7.406 14.6014 6.239 13.4344 6.239 11.9994C6.239 11.6284 6.315 11.2704 6.467 10.9324Z" fill="currentColor"/>
</svg>
